<svg width="21" height="20" viewBox="0 0 21 20" fill="none" xmlns="http://www.w3.org/2000/svg">
<g filter="url(#filter0_g_68_630)">
<mask id="path-1-outside-1_68_630" maskUnits="userSpaceOnUse" x="3.35742" y="3.45453" width="14" height="13" fill="black">
<rect fill="white" x="3.35742" y="3.45453" width="14" height="13"/>
<path d="M8.98846 14.8182L9.26119 11.8182L6.77255 13.5568L5.40891 11.1704L8.13619 9.90907L5.40891 8.64771L6.77255 6.26135L9.26119 7.99998L8.98846 4.99998H11.7157L11.443 7.99998L13.9316 6.26135L15.2953 8.64771L12.568 9.90907L15.2953 11.1704L13.9316 13.5568L11.443 11.8182L11.7157 14.8182H8.98846Z"/>
</mask>
<path d="M8.98846 14.8182L9.26119 11.8182L6.77255 13.5568L5.40891 11.1704L8.13619 9.90907L5.40891 8.64771L6.77255 6.26135L9.26119 7.99998L8.98846 4.99998H11.7157L11.443 7.99998L13.9316 6.26135L15.2953 8.64771L12.568 9.90907L15.2953 11.1704L13.9316 13.5568L11.443 11.8182L11.7157 14.8182H8.98846Z" fill="#EB5E55"/>
<path d="M8.98846 14.8182L7.99257 14.7276L7.89343 15.8182H8.98846V14.8182ZM9.26119 11.8182L10.2571 11.9087L10.4518 9.76648L8.68848 10.9984L9.26119 11.8182ZM6.77255 13.5568L5.90431 14.0529L6.4476 15.0037L7.34526 14.3766L6.77255 13.5568ZM5.40891 11.1704L4.98914 10.2628L3.99995 10.7203L4.54067 11.6666L5.40891 11.1704ZM8.13619 9.90907L8.55596 10.8167L10.5184 9.90907L8.55596 9.00145L8.13619 9.90907ZM5.40891 8.64771L4.54067 8.15157L3.99995 9.09784L4.98914 9.55534L5.40891 8.64771ZM6.77255 6.26135L7.34526 5.44159L6.4476 4.81445L5.90431 5.76521L6.77255 6.26135ZM9.26119 7.99998L8.68848 8.81974L10.4518 10.0517L10.2571 7.90945L9.26119 7.99998ZM8.98846 4.99998V3.99998H7.89343L7.99257 5.09052L8.98846 4.99998ZM11.7157 4.99998L12.7116 5.09052L12.8108 3.99998H11.7157V4.99998ZM11.443 7.99998L10.4471 7.90945L10.2524 10.0517L12.0157 8.81974L11.443 7.99998ZM13.9316 6.26135L14.7999 5.76521L14.2566 4.81445L13.3589 5.44159L13.9316 6.26135ZM15.2953 8.64771L15.7151 9.55534L16.7042 9.09784L16.1635 8.15157L15.2953 8.64771ZM12.568 9.90907L12.1482 9.00145L10.1858 9.90907L12.1482 10.8167L12.568 9.90907ZM15.2953 11.1704L16.1635 11.6666L16.7042 10.7203L15.7151 10.2628L15.2953 11.1704ZM13.9316 13.5568L13.3589 14.3766L14.2566 15.0037L14.7999 14.0529L13.9316 13.5568ZM11.443 11.8182L12.0157 10.9984L10.2524 9.76648L10.4471 11.9087L11.443 11.8182ZM11.7157 14.8182V15.8182H12.8108L12.7116 14.7276L11.7157 14.8182ZM8.98846 14.8182L9.98435 14.9087L10.2571 11.9087L9.26119 11.8182L8.26529 11.7276L7.99257 14.7276L8.98846 14.8182ZM9.26119 11.8182L8.68848 10.9984L6.19984 12.737L6.77255 13.5568L7.34526 14.3766L9.83389 12.6379L9.26119 11.8182ZM6.77255 13.5568L7.64079 13.0607L6.27716 10.6743L5.40891 11.1704L4.54067 11.6666L5.90431 14.0529L6.77255 13.5568ZM5.40891 11.1704L5.82869 12.0781L8.55596 10.8167L8.13619 9.90907L7.71641 9.00145L4.98914 10.2628L5.40891 11.1704ZM8.13619 9.90907L8.55596 9.00145L5.82869 7.74008L5.40891 8.64771L4.98914 9.55534L7.71641 10.8167L8.13619 9.90907ZM5.40891 8.64771L6.27716 9.14385L7.64079 6.75749L6.77255 6.26135L5.90431 5.76521L4.54067 8.15157L5.40891 8.64771ZM6.77255 6.26135L6.19984 7.08111L8.68848 8.81974L9.26119 7.99998L9.83389 7.18022L7.34526 5.44159L6.77255 6.26135ZM9.26119 7.99998L10.2571 7.90945L9.98435 4.90945L8.98846 4.99998L7.99257 5.09052L8.26529 8.09052L9.26119 7.99998ZM8.98846 4.99998V5.99998H11.7157V4.99998V3.99998H8.98846V4.99998ZM11.7157 4.99998L10.7198 4.90945L10.4471 7.90945L11.443 7.99998L12.4389 8.09052L12.7116 5.09052L11.7157 4.99998ZM11.443 7.99998L12.0157 8.81974L14.5043 7.08111L13.9316 6.26135L13.3589 5.44159L10.8703 7.18022L11.443 7.99998ZM13.9316 6.26135L13.0634 6.75749L14.427 9.14385L15.2953 8.64771L16.1635 8.15157L14.7999 5.76521L13.9316 6.26135ZM15.2953 8.64771L14.8755 7.74008L12.1482 9.00145L12.568 9.90907L12.9878 10.8167L15.7151 9.55534L15.2953 8.64771ZM12.568 9.90907L12.1482 10.8167L14.8755 12.0781L15.2953 11.1704L15.7151 10.2628L12.9878 9.00145L12.568 9.90907ZM15.2953 11.1704L14.427 10.6743L13.0634 13.0607L13.9316 13.5568L14.7999 14.0529L16.1635 11.6666L15.2953 11.1704ZM13.9316 13.5568L14.5043 12.737L12.0157 10.9984L11.443 11.8182L10.8703 12.6379L13.3589 14.3766L13.9316 13.5568ZM11.443 11.8182L10.4471 11.9087L10.7198 14.9087L11.7157 14.8182L12.7116 14.7276L12.4389 11.7276L11.443 11.8182ZM11.7157 14.8182V13.8182H8.98846V14.8182V15.8182H11.7157V14.8182Z" fill="#564138" mask="url(#path-1-outside-1_68_630)"/>
</g>
<defs>
<filter id="filter0_g_68_630" x="0" y="0" width="20.7041" height="19.8182" filterUnits="userSpaceOnUse" color-interpolation-filters="sRGB">
<feFlood flood-opacity="0" result="BackgroundImageFix"/>
<feBlend mode="normal" in="SourceGraphic" in2="BackgroundImageFix" result="shape"/>
<feTurbulence type="fractalNoise" baseFrequency="0.25 0.25" numOctaves="3" seed="3046" />
<feDisplacementMap in="shape" scale="8" xChannelSelector="R" yChannelSelector="G" result="displacedImage" width="100%" height="100%" />
<feMerge result="effect1_texture_68_630">
<feMergeNode in="displacedImage"/>
</feMerge>
</filter>
</defs>
</svg>
